<svg width="20" height="20" viewBox="0 0 20 20" fill="none" xmlns="http://www.w3.org/2000/svg">
<g clip-path="url(#clip0)">
<path d="M3.125 14.375H0.625C0.45924 14.375 0.300269 14.4408 0.183058 14.5581C0.065848 14.6753 0 14.8342 0 15L0 17.5C0 17.6658 0.065848 17.8247 0.183058 17.9419C0.300269 18.0592 0.45924 18.125 0.625 18.125H3.125C3.29076 18.125 3.44973 18.0592 3.56694 17.9419C3.68415 17.8247 3.75 17.6658 3.75 17.5V15C3.75 14.8342 3.68415 14.6753 3.56694 14.5581C3.44973 14.4408 3.29076 14.375 3.125 14.375ZM3.125 1.875H0.625C0.45924 1.875 0.300269 1.94085 0.183058 2.05806C0.065848 2.17527 0 2.33424 0 2.5L0 5C0 5.16576 0.065848 5.32473 0.183058 5.44194C0.300269 5.55915 0.45924 5.625 0.625 5.625H3.125C3.29076 5.625 3.44973 5.55915 3.56694 5.44194C3.68415 5.32473 3.75 5.16576 3.75 5V2.5C3.75 2.33424 3.68415 2.17527 3.56694 2.05806C3.44973 1.94085 3.29076 1.875 3.125 1.875ZM3.125 8.125H0.625C0.45924 8.125 0.300269 8.19085 0.183058 8.30806C0.065848 8.42527 0 8.58424 0 8.75L0 11.25C0 11.4158 0.065848 11.5747 0.183058 11.6919C0.300269 11.8092 0.45924 11.875 0.625 11.875H3.125C3.29076 11.875 3.44973 11.8092 3.56694 11.6919C3.68415 11.5747 3.75 11.4158 3.75 11.25V8.75C3.75 8.58424 3.68415 8.42527 3.56694 8.30806C3.44973 8.19085 3.29076 8.125 3.125 8.125ZM19.375 15H6.875C6.70924 15 6.55027 15.0658 6.43306 15.1831C6.31585 15.3003 6.25 15.4592 6.25 15.625V16.875C6.25 17.0408 6.31585 17.1997 6.43306 17.3169C6.55027 17.4342 6.70924 17.5 6.875 17.5H19.375C19.5408 17.5 19.6997 17.4342 19.8169 17.3169C19.9342 17.1997 20 17.0408 20 16.875V15.625C20 15.4592 19.9342 15.3003 19.8169 15.1831C19.6997 15.0658 19.5408 15 19.375 15ZM19.375 2.5H6.875C6.70924 2.5 6.55027 2.56585 6.43306 2.68306C6.31585 2.80027 6.25 2.95924 6.25 3.125V4.375C6.25 4.54076 6.31585 4.69973 6.43306 4.81694C6.55027 4.93415 6.70924 5 6.875 5H19.375C19.5408 5 19.6997 4.93415 19.8169 4.81694C19.9342 4.69973 20 4.54076 20 4.375V3.125C20 2.95924 19.9342 2.80027 19.8169 2.68306C19.6997 2.56585 19.5408 2.5 19.375 2.5ZM19.375 8.75H6.875C6.70924 8.75 6.55027 8.81585 6.43306 8.93306C6.31585 9.05027 6.25 9.20924 6.25 9.375V10.625C6.25 10.7908 6.31585 10.9497 6.43306 11.0669C6.55027 11.1842 6.70924 11.25 6.875 11.25H19.375C19.5408 11.25 19.6997 11.1842 19.8169 11.0669C19.9342 10.9497 20 10.7908 20 10.625V9.375C20 9.20924 19.9342 9.05027 19.8169 8.93306C19.6997 8.81585 19.5408 8.75 19.375 8.75Z" fill="#0F6157"/>
</g>
<defs>
<clipPath id="clip0">
<rect width="20" height="20" fill="white"/>
</clipPath>
</defs>
</svg>
